<svg xmlns="http://www.w3.org/2000/svg" viewBox="0 0 278.95 364.77"><defs><clipPath id="a"><path d="M657.86 714c-6.328-1.584-11.789-6.053-15.558-11.262-5.24-7.243-8.099-15.796-10.131-24.413-2.509-10.639-4.242-21.405-6.176-32.138-.375-2.081-.574-4.27.089-6.279.754-2.279 2.378-3.576 4.134-3.94 2.607-.541 5.5.971 6.256 4.374 2.973 13.38 6.188 30.134 16.475 40.053 5.628 5.427 13.284 9.264 16.45 16.813 3.344 7.975.139 17.223-8.246 17.222-1.022 0-2.12-.137-3.293-.43"/></clipPath><clipPath id="c"><path d="M587.74 656.11c-4.454-1.553-6.179-7.741-9.635-10.766-4.862-4.255-10.78-6.579-16.256-9.84-4.749-2.83-9.31-5.909-13.597-9.404a105.2 105.2 0 0 1-21.882-24.452c-11.554-17.906-17.342-39.183-16.511-60.473 2.316-59.243 53.67-105.02 113.53-99.936 53.452 4.542 95.22 49.607 95.595 103.14.127 18.119-4.454 36.139-13.347 51.935-8.601 15.275-21.071 28.279-35.948 37.544-15.231 9.486-32.835 14.922-50.762 15.68-2.884.123-5.775.009-8.618.116-3.767.143-7.449.675-10.919 2.661-2.725 1.56-6.179 4.135-9.602 4.135a6.2 6.2 0 0 1-2.051-.34"/></clipPath><clipPath id="e"><path d="M543.12 696c-2.246-1.836-3.757-4.436-4.722-7.298-1.202-3.563-1.559-7.533-1.434-10.947a69 69 0 0 1 .287-4.227q.233-2.329.613-4.638c1.405-8.56 4.256-16.809 7.63-24.776 3.277-7.738 6.742-15.649 10.805-23.007 1.759-3.186 4.484-7.662 8.75-5.552 2.513 1.243 3.919 3.92 3.518 7.17-.24 1.937-1.533 3.666-2.308 5.363-3.994 8.754-7.324 18.993-7.037 28.902.34 11.761 6.812 27.412-1.732 37.629a10.28 10.28 0 0 1-7.901 3.688c-2.279 0-4.571-.755-6.469-2.307"/></clipPath><clipPath id="g"><path d="M0 1080h1854.1V0H0z"/></clipPath><linearGradient id="b" x2="1" gradientTransform="scale(85.166 -85.166)rotate(-62 -2.587 -9.845)" gradientUnits="userSpaceOnUse"><stop offset="0" stop-color="#06f"/><stop offset=".2" stop-color="#1677ff"/><stop offset="1" stop-color="#04a6ff"/></linearGradient><linearGradient id="d" x2="1" gradientTransform="scale(209.2 -209.2)rotate(-20 -5.732 -8.202)" gradientUnits="userSpaceOnUse"><stop offset="0" stop-color="#06f"/><stop offset=".2" stop-color="#1677ff"/><stop offset="1" stop-color="#04a6ff"/></linearGradient><linearGradient id="f" x2="1" gradientTransform="scale(-84.398 84.398)rotate(75 -8.107 -.722)" gradientUnits="userSpaceOnUse"><stop offset="0" stop-color="#06f"/><stop offset=".2" stop-color="#1677ff"/><stop offset="1" stop-color="#04a6ff"/></linearGradient></defs><g clip-path="url(#a)" transform="matrix(1.3333 0 0 -1.3333 -679.7 952.57)"><path fill="url(#b)" d="M657.86 714c-6.328-1.584-11.789-6.053-15.558-11.262-5.24-7.243-8.099-15.796-10.131-24.413-2.509-10.639-4.242-21.405-6.176-32.138-.375-2.081-.574-4.27.089-6.279.754-2.279 2.378-3.576 4.134-3.94 2.607-.541 5.5.971 6.256 4.374 2.973 13.38 6.188 30.134 16.475 40.053 5.628 5.427 13.284 9.264 16.45 16.813 3.344 7.975.139 17.223-8.246 17.222-1.022 0-2.12-.137-3.293-.43"/></g><g clip-path="url(#c)" transform="matrix(1.3333 0 0 -1.3333 -679.7 952.57)"><path fill="url(#d)" d="M587.74 656.11c-4.454-1.553-6.179-7.741-9.635-10.766-4.862-4.255-10.78-6.579-16.256-9.84-4.749-2.83-9.31-5.909-13.597-9.404a105.2 105.2 0 0 1-21.882-24.452c-11.554-17.906-17.342-39.183-16.511-60.473 2.316-59.243 53.67-105.02 113.53-99.936 53.452 4.542 95.22 49.607 95.595 103.14.127 18.119-4.454 36.139-13.347 51.935-8.601 15.275-21.071 28.279-35.948 37.544-15.231 9.486-32.835 14.922-50.762 15.68-2.884.123-5.775.009-8.618.116-3.767.143-7.449.675-10.919 2.661-2.725 1.56-6.179 4.135-9.602 4.135a6.2 6.2 0 0 1-2.051-.34"/></g><g clip-path="url(#e)" transform="matrix(1.3333 0 0 -1.3333 -679.7 952.57)"><path fill="url(#f)" d="M543.12 696c-2.246-1.836-3.757-4.436-4.722-7.298-1.202-3.563-1.559-7.533-1.434-10.947a69 69 0 0 1 .287-4.227q.233-2.329.613-4.638c1.405-8.56 4.256-16.809 7.63-24.776 3.277-7.738 6.742-15.649 10.805-23.007 1.759-3.186 4.484-7.662 8.75-5.552 2.513 1.243 3.919 3.92 3.518 7.17-.24 1.937-1.533 3.666-2.308 5.363-3.994 8.754-7.324 18.993-7.037 28.902.34 11.761 6.812 27.412-1.732 37.629a10.28 10.28 0 0 1-7.901 3.688c-2.279 0-4.571-.755-6.469-2.307"/></g><g clip-path="url(#g)" transform="matrix(1.3333 0 0 -1.3333 -679.7 952.57)"><path fill="#fff" d="M693.13 514.41c-9.008-10.086-21.31-15.84-34.621-16.252-14.983-.457-29.714 5.626-41.53 17.121-11.849 11.525-19.292 27.074-20.991 43.851-1.798 17.762 3.286 34.807 14.023 46.791 9.025 10.074 21.288 15.812 34.697 16.212q.779.024 1.562.023c14.728-.016 29.207-6.405 40.715-18.013 11.516-11.617 18.721-27.085 20.261-43.492 1.645-17.518-3.526-34.382-14.116-46.241m18.251 44.26c-3.372 39.038-34.547 70.635-69.536 70.584-34.882-.05-60.378-31.554-57.043-70.375 3.335-38.833 34.267-70.456 69.186-70.622 35.027-.167 60.766 31.363 57.393 70.413"/></g></svg>