<svg xmlns="http://www.w3.org/2000/svg" viewBox="0 0 13.356 7.144"><g stroke-width=".265"><path d="M3.736 0q.635 0 1.08.148.455.138.74.402.297.254.434.614.138.36.138.794 0 .624-.265 1.005-.254.381-.762.582.508.212.783.614.276.392.276 1.016 0 .434-.138.794t-.434.624q-.286.254-.74.403-.445.148-1.08.148H.593Q0 7.144 0 6.562V.582Q0 0 .593 0zM1.228 5.79q0 .116.137.116H3.8q.571 0 .836-.244.264-.243.264-.688 0-.92-1.1-.92H1.228zm0-2.774h2.54q1.1 0 1.1-.857 0-.423-.264-.677-.254-.254-.826-.254H1.365q-.137 0-.137.127zM10.943 0q.635 0 1.08.148.455.138.74.402.297.254.434.604.138.349.138.762 0 .635-.265 1.037-.254.391-.751.603.508.212.772.624.265.403.265 1.048 0 .402-.138.752-.137.349-.423.613-.286.254-.74.403-.445.148-1.08.148h-3.61V5.895h3.61q.55 0 .815-.233.264-.243.264-.677 0-.857-1.09-.857H8.763V2.995h2.17q.55 0 .814-.2.276-.213.276-.657 0-.402-.254-.646t-.826-.243H7.376V0z"/></g></svg>