<svg xmlns="http://www.w3.org/2000/svg" viewBox="0 0 182 180.1"><path fill="#515657" d="M26 90.1v30l26-15v-30z"/><path fill="#a1b4b4" d="m52 135.1-26-15v-30l-26-15v60l78 45v-30zM104 75.1v30l26 15v-30z"/><path fill="#768589" d="m104 105.1-26 15-26-15-26 15 52 30 52-30z"/><path fill="#515657" d="m104 135.1-26 15v30l52-30v-30zM130 90.1v30l26-15v-30z"/><path fill="#a1b4b4" d="M130 120.1v30l26 15v-30z"/><path fill="#768589" d="m156 105.1-26 15 26 15 26-15z"/><path fill="#515657" d="M156 135.1v30l26-15v-30z"/><path fill="#ea7110" d="m26 60.1 13 7.5-13 7.5z"/><path fill="#eabd00" d="m39 67.6-13 7.5v15l26-15z"/><path fill="#ff7b11" d="M13 52.6 0 45.1v15l26 15v-15z"/><path fill="#ffce00" d="M13 67.6 0 60.1v15l26 15v-15z"/><path fill="#ff7b11" d="m117.1 67.6 13 7.5v-15z"/><path fill="#ffce00" d="m117.1 67.6-13 7.5 26 15v-15z"/><path fill="#e81e25" d="M65 52.6 0 15.1v15l78 45v-15z"/><path fill="#ff5905" d="M65 67.6 0 30.1v15l78 45v-15z"/><path fill="#f01" d="m143.1 7.5-13-7.5-13 7.5-13 7.6-13 7.5L78 30.1l-26-15-13-7.6L26 0 13 7.5 0 15.1l78 45 13.1-7.5 65-37.5z"/><path fill="#c1272d" d="m143.1 22.6-52 30L78 60.1v15l13.1-7.5 65-37.5v-15z"/><path fill="#e84f06" d="m143.1 37.6-52 30L78 75.1v15l13.1-7.5 65-37.5v-15z"/><path fill="#ea7110" d="m143.1 52.6-13 7.5v15l26-15v-15z"/><path fill="#eabd00" d="m143.1 67.6-13 7.5v15l26-15v-15z"/></svg>