<svg xmlns="http://www.w3.org/2000/svg" viewBox="0 0 23.641 21.671"><g fill="none" fill-rule="evenodd" transform="rotate(180 12 10.835)"><rect width="11" height="7.333" x="12.18" y=".657" fill="#000" rx=".5"/><g stroke="#000"><rect width="10.82" height="9.507" x="12.68" y="11.664" rx=".5"/><rect width="6.88" height="9.507" x=".859" y=".5" rx="1"/><path d="M4.109 20.596c-.36.207-.768.25-1.139.15-.37-.1-.703-.34-.91-.7l-.627-1.085a1.5 1.5 0 0 1-.15-1.138c.1-.37.34-.704.699-.91l2.905-1.678a1.497 1.497 0 0 1 2.05.55l.626 1.084c.207.359.25.768.15 1.139-.1.37-.34.703-.699.91z"/></g></g></svg>