<svg xmlns="http://www.w3.org/2000/svg" viewBox="0 0 56.776 54.271"><path fill="#3cd0ac" d="M28.388 0A28.39 28.39 0 0 0 0 28.388a28.39 28.39 0 0 0 11.477 22.801c2.86-2.475 5.076-5.524 6.904-8.917 0 0-2.392.327-4.176-.158s-3.401-1.605-3.419-2.179c-.017-.573 5.261-1.352 7.866-3.814 2.436-2.303 4.624-7.126 6.163-8.24 1.539-1.112 3.769-.597 3.769-.597l9.39-9.661s2.077 2.437 2.257 2.98c.18.54-.124 1.33-.35 1.76s-1.218 1.821-.98 2.498c.236.677.766 1.34 1.274 1.384.508.045 2.043-2.031 2.043-2.031s.981.654.665 1.84c-.316 1.184-4.243 8.741-4.466 10.4s-.008 5.587 1.333 10.391c0 0-1.177-.41-1.318-.224-.14.186.91 3.473 2.203 4.893 0 0-1.803-1.061-2.09-.71-.203.248.861 2.29 1.503 3.466a28.39 28.39 0 0 0 16.728-25.883A28.39 28.39 0 0 0 28.388 0zM16.797 6.314a3.256 4.628 48.537 0 1 2.041.835 3.256 4.628 48.537 0 1-1.272 5.5 3.256 4.628 48.537 0 1-5.633.665 3.256 4.628 48.537 0 1 1.271-5.5 3.256 4.628 48.537 0 1 3.593-1.5m-7.31 8.61a1.904 2.862 39.176 0 1 1.24.777 1.904 2.862 39.176 0 1-1.32 3.569 1.904 2.862 39.176 0 1-3.025-.08 1.904 2.862 39.176 0 1 1.32-3.567 1.904 2.862 39.176 0 1 1.786-.7"/></svg>