<svg xmlns="http://www.w3.org/2000/svg" viewBox="0 0 136.21 136.21"><path fill="#93d500" d="M35.99 78.329h-.137L.048 78.33q.008.264.02.526c.015.338.039.675.06 1.013.01.145.016.29.027.433a64 64 0 0 0 .275 2.851 54 54 0 0 0 .187 1.408 60 60 0 0 0 1.856 8.493q.006.017.01.035a57 57 0 0 0 .851 2.641l.105.297q.18.51.369 1.017.088.23.174.46l.328.84q.126.315.259.632.135.328.275.657.173.4.351.8l.213.475q.22.48.448.957.073.153.148.307.264.549.538 1.089c.031.056.057.111.086.166q.308.6.63 1.193.015.025.028.053c.045.082.095.161.14.243l30.697-18.492.114-.068a24.4 24.4 0 0 1-2.247-8.027"/><path fill="#93d500" d="m1.74 94.809.02.03 1.16-.37z"/><path fill="#4d5a31" d="m44.82 94.829-25.404 25.405q.194.184.392.362.356.322.716.636.185.167.369.327.431.37.865.732l.234.195a58 58 0 0 0 1.114.896c.359.283.722.557 1.087.834q.024.015.041.03a61 61 0 0 0 4.736 3.202l.169.103q.464.279.933.551l.573.326q.27.156.543.305.493.272.99.533l.137.073c.921.481 1.857.929 2.8 1.359l.898-2.181 12.734-30.923.047-.115a24.5 24.5 0 0 1-3.974-2.65"/><path fill="#6ba43a" d="M42.19 92.299a25 25 0 0 1-.789-.931 24.872 24.872 0 0 1-1.36-1.843 27 27 0 0 1-.657-1.025L8.649 107.015c.472.784.965 1.548 1.467 2.303l.05.079.018.028q.025.038.048.076l.005.008.123.18.007.011.003.005a61 61 0 0 0 1.647 2.323l.037.049.036.047q.366.49.746.973.049.063.101.125.391.5.795.987.096.115.192.233c.244.291.486.579.735.867q.16.184.324.368c.211.241.421.48.638.718q.178.195.362.391l.164.177q.236.256.475.509l.195.2q.419.439.85.871l25.354-25.355a24 24 0 0 1-.831-.889"/><path fill="#4d5a31" d="M75.8 94.809q-.418.338-.847.656l.063.105 18.486 30.687a57 57 0 0 0 2.529-1.741 61 61 0 0 0 5.189-4.289L75.9 94.908z"/><g fill="#93d500"><path d="m91.16 127.719.041-.023-.001-.001zM91.2 127.699l.001.001c.081-.045.162-.087.242-.135l-.005-.008zM91.15 127.729l.01-.01zM91.14 127.729l-.04-.07z"/><path d="m91.16 127.719.041-.022v-.001zM91.13 127.739h.01zM91.14 127.729v.01zM91.15 127.729l-.007.004v.001l.018-.01v-.001zM91.2 127.699c.08-.047.162-.088.241-.136-.08.048-.161.09-.241.136M91.12 127.749l.01-.01zM90.81 126.509l-.627-1.041-17.256-28.644c-.349.21-.706.4-1.063.592q-.539.288-1.09.548a24.5 24.5 0 0 1-10.497 2.376c-2.354 0-4.707-.34-6.982-1.019-.388-.116-.766-.268-1.149-.403s-.771-.252-1.148-.407l-12.725 30.902-.499 1.212-.427 1.037-.002.005q.05.02.099.038l.104.04h.001l.002.001.025.009c.301.122.603.229.905.346.379.147.757.296 1.136.435.193.071.386.153.579.222h.001a60.7 60.7 0 0 0 12.305 2.945q.245.031.492.065.257.029.516.056.484.057.97.106.12.009.24.021.597.056 1.191.099.203.013.405.025.523.036 1.044.061c.213.012.426.018.64.026q.413.016.829.029.597.013 1.199.015.142 0 .283.004c3.351 0 6.7-.279 10.011-.834l.167-.026q.525-.093 1.051-.191.3-.058.597-.115l.614-.128a44 44 0 0 0 1.023-.225q.091-.019.185-.042a60.7 60.7 0 0 0 14.467-5.394l.002-.001c.299-.158.591-.337.889-.5q.532-.292 1.061-.597c.244-.14.491-.269.734-.413l.001-.001.008-.005h.001l.01-.006.005-.003-.044-.076.045.076.007-.004.01-.006.04-.024.237-.142zM44.84 56.969q.418-.339.848-.657l-.063-.105L27.14 25.52a56 56 0 0 0-2.535 1.746 61 61 0 0 0-5.183 4.283l25.32 25.32z"/></g><path fill="#4d5a31" d="M17.66 33.239c-.288.288-.56.586-.841.878s-.567.582-.841.879a60.5 60.5 0 0 0-5.858 7.425q-.266.397-.522.798-.097.147-.189.293C3.586 52.648.465 63.01.045 73.46q-.022.608-.032 1.216c-.01.608-.021.811-.021 1.216l35.859-.001c0-.406.038-.81.058-1.216s.026-.812.067-1.216A24.34 24.34 0 0 1 41.384 60.4c.255-.311.544-.603.817-.904s.526-.613.816-.903zM91.65 24.338l-.148-.089c-.315-.193-.633-.379-.952-.566q-.277-.16-.555-.317c-.188-.104-.372-.209-.56-.312a76 76 0 0 0-.974-.525q-.076-.04-.153-.08a60 60 0 0 0-6.467-2.907q-.085-.035-.171-.066-.72-.272-1.447-.527a60.5 60.5 0 0 0-12.083-2.868 29 29 0 0 0-.504-.068q-.253-.03-.504-.056a53 53 0 0 0-.974-.106l-.273-.024q-.58-.055-1.158-.097-.225-.015-.452-.028c-.331-.022-.665-.045-.996-.059q-.266-.012-.528-.02l-.002 35.805v.14c1.844.191 3.672.584 5.446 1.186L94.649 26.3a63 63 0 0 0-2.999-1.962"/><g fill="#6ba43a"><path d="m29.2 24.228.62 1.042zM29.2 24.228l-.01-.006zM59.1 15.596c-.405.008-.811.009-1.216.026a61 61 0 0 0-7.58.781l-.166.027a72 72 0 0 0-2.265.434q-.512.106-1.021.224-.092.021-.187.042a60.7 60.7 0 0 0-14.469 5.396h-.001c-.298.158-.589.337-.886.499q-.532.292-1.06.598c-.262.151-.528.289-.788.445l-.009.005-.001.001-.055.031c-.068.041-.138.075-.206.116l.004.007.628 1.042 17.882 29.686c.349-.21.706-.401 1.063-.593q.54-.289 1.089-.549a24.4 24.4 0 0 1 8.027-2.25q.607-.063 1.216-.096c.405-.02.81-.041 1.216-.042l.002-35.858c-.406.002-.811.019-1.217.028"/></g><path fill="#4d5a31" d="M120.56 72.929a52 52 0 0 0-.058-.966q-.014-.24-.032-.483a55 55 0 0 0-.094-1.136l-.026-.294a77 77 0 0 0-.135-1.268l-.012-.102-.006-.049a70 70 0 0 0-.187-1.409 60.4 60.4 0 0 0-1.853-8.478l-.017-.054q-.194-.649-.399-1.293l-.055-.17a69 69 0 0 0-.5-1.473q-.177-.502-.364-1-.09-.239-.182-.475a54 54 0 0 0-.587-1.475q-.132-.32-.268-.639a84 84 0 0 0-.358-.817l-.206-.46q-.222-.485-.454-.97l-.141-.294q-.267-.552-.545-1.102l-.08-.152a60 60 0 0 0-.634-1.204l-.023-.043a60 60 0 0 0-3.432-5.567L83.449 68.019a25 25 0 0 1 1.185 5.444h35.947q-.009-.27-.021-.534"/><path fill="#6ba43a" d="M84.78 75.889c0 .406-.038.81-.058 1.216s-.026.812-.066 1.216a24.35 24.35 0 0 1-5.407 13.061c-.255.311-.544.603-.817.904s-.526.613-.816.903l25.356 25.355c.288-.288.56-.586.841-.879s.567-.582.841-.879a60.5 60.5 0 0 0 5.136-6.368q.092-.13.18-.261.282-.407.556-.818.243-.366.481-.736.117-.179.231-.359c5.815-9.131 8.927-19.483 9.345-29.924.016-.405.024-.811.032-1.216s.021-.81.021-1.216z"/><path fill="#424143" d="M131.29 4.92c-6.56-6.56-17.197-6.56-23.757 0-5.234 5.233-6.279 13.055-3.163 19.337L67.778 60.85c-6.283-3.115-14.104-2.07-19.339 3.162-6.561 6.56-6.559 17.198-.001 23.758 6.562 6.561 17.199 6.559 23.76-.001 5.233-5.233 6.278-13.055 3.161-19.338l36.592-36.591c6.283 3.116 14.104 2.07 19.338-3.163 6.56-6.559 6.56-17.197.001-23.757"/></svg>