<svg xmlns="http://www.w3.org/2000/svg" viewBox="0 0 200 213.99"><g clip-path="url(#a)" transform="translate(-20 -6.012)"><path fill="#91ede9" d="M20 20h200v200H20z"/><path fill="#48acba" d="M229 223H13v-43.5s19.18-15.8 28.5-16.5c11.84-.89 14.78 3.6 26.5 5.5 12.33 2 20.25-10.9 32.5-8.5 12.5 2.44 28.67 11.86 39 11.5 21.84-.76 20.55-4.87 38.5-1 7.63 1.65 15.77-14.42 28.5-12 6.45 1.22 22.5 2.5 22.5 2.5z"/><path fill="#2b3c5a" d="M222 223H10v-40s19.68-10.8 29-11.5c11.84-.89 14.28 7.93 26 9.84 12.33 2 16.75-10.24 29-7.84 12.5 2.44 22.67 14.36 33 14 21.84-.76 23.05-11.37 41-7.5 7.63 1.65 9.5 5.5 27.5 1.34S222 183 222 183z"/></g><path fill="#ff915c" stroke="#2b3c5a" stroke-width="8" d="M107.02 36.478a17 17 0 1 0-14.04 0l-.43 12.51h-.05l-23.73 1.79a3 3 0 0 0-2.77 3v6.43a3 3 0 0 0 2.77 3L92 64.988l-1.1 41.77c-.34 12.61-2.4 28.07-14.71 30.77-1.37.3-2.77.46-4.19.46-7.39 0-15.91-9.1-21.37-18.42a63 63 0 0 1 6.64-2.44c1.3-.4 1.55-2.22.42-2.97-8.18-5.4-14.67-12.67-18.65-21.06-.55-1.16-2.2-1.24-2.75-.09a65 65 0 0 0-3.52 9 62.4 62.4 0 0 0-2.08 27.64l.1.6c.2 1.2 1.68 1.63 2.56.78a55 55 0 0 1 5.23-4.47c10.05 31.63 43.64 47.43 61.42 47.43 17.79 0 51.39-15.82 61.42-47.45a55 55 0 0 1 5.24 4.48c.87.85 2.37.42 2.56-.78l.05-.32.04-.27a62.6 62.6 0 0 0-2.07-27.63 65 65 0 0 0-3.5-9c-.54-1.15-2.2-1.06-2.74.1-3.97 8.38-10.43 15.64-18.57 21.04-1.13.75-.87 2.57.43 2.97a62 62 0 0 1 6.53 2.41c-5.46 9.34-14 18.45-21.39 18.45a19.4 19.4 0 0 1-4.18-.46c-12.33-2.7-14.38-18.16-14.72-30.77l-1.1-41.77 23.23-1.79a3 3 0 0 0 2.77-2.99v-6.44a3 3 0 0 0-2.77-2.99l-23.73-1.79h-.05zm2.98-15.49a10 10 0 1 1-20 0 10 10 0 0 1 20 0z" paint-order="stroke"/><g fill="#8a380f"><path d="M66 61.138a2 2 0 0 0 1.85 2L92 64.988l6.63-6.63a.8.8 0 0 0-.56-1.37H66zm96.12 31.66a.9.9 0 0 1 1.57.1 65 65 0 0 1 3.55 9.12 62.6 62.6 0 0 1 1.98 28.22c-.2 1.2-1.69 1.63-2.57.78a56.7 56.7 0 0 0-11.09-8.36 1.55 1.55 0 0 1-.64-1.98c3.37-7.58 5.85-16.67 7.05-27.47a.94.94 0 0 1 .15-.4z"/><path d="m107 35.988.5 13-5.82 5.43a1 1 0 0 1-1.68-.73v-17.7zm57 78c-4 40-44 60-64 60v-115.5a1.5 1.5 0 0 1 1.5-1.5H134v3.29a3 3 0 0 1-2.7 2.98l-23.3 1.73 1.1 41.77c.34 12.61 2.37 28.1 14.7 30.78a19 19 0 0 0 4.13.45 5 5 0 0 0-3.65 1.62c-4.87 5.8-10.4 11.64-18.57 14.28 21.5 1 51.1-13.63 56.29-60.9z"/><path d="M102 33.888c-1.1.11-2 1-2 2.1s.9 2.01 2 1.88a17 17 0 0 0 10.02-4.86 17 17 0 0 0 4.98-11.94.08.08 0 0 0-.08-.08.08.08 0 0 0-.08.07c-1.05 6.73-7.17 12.03-14.84 12.83"/></g><clipPath id="a"><rect width="200" height="200" x="20" y="20" rx="100"/></clipPath></svg>