<svg version="1.1" viewBox="0 0 6.0853 5.4268" xmlns="http://www.w3.org/2000/svg"><g transform="translate(-.00033 .00041158)" stroke="#27262b"><g transform="matrix(.26458 0 0 .26458 3.043 2.713)" fill="none"><ellipse rx="11" ry="4.2"/><ellipse transform="rotate(60)" rx="11" ry="4.2"/><ellipse transform="rotate(120)" rx="11" ry="4.2"/></g><path d="m2.77 1.976a0.16 0.16 0 0 0-0.09 0.029 0.16 0.16 0 0 0-0.093 0.144v1.133c0 0.066 0.038 0.119 0.086 0.148l3e-3 1e-3 0.011 4e-3c0.017 6e-3 0.043 0.018 0.074 0.018q0.05 1e-3 0.098-0.028l0.907-0.562a0.17 0.17 0 0 0 0.079-0.148 0.17 0.17 0 0 0-0.073-0.143l-6e-3 -6e-3 -0.908-0.566h-5e-3a0.2 0.2 0 0 0-0.083-0.024m0.08 0.332 0.652 0.407-0.653 0.403z" fill="#27262b" stroke="none"/></g></svg>
