<svg xmlns="http://www.w3.org/2000/svg" fill="none" class="h-5 w-auto" viewBox="0 0 1558 260"><path fill="#0196d0" d="M1288.5 112.9h-128.75V58.435H1262l8-58.44h-196v260h85.75v-97.003h137.2zm-229.88-54.465V-.005H789v58.44h92.133v201.56h85.752V58.435zM521 179.095V-.005l-66.027 15v146c0 20.124-2.889 32.146-11.473 41-8.584 9.257-24.182 12.5-43 12.5-19.478 0-33.756-3.646-43-12.5-8.584-8.452-11.143-26.279-11.143-46v-156l-66.357 15v160.48c0 32.6 10.234 53.932 29.712 66.006s49.191 18.514 90.788 18.514c39.947 0 69.659-6.44 89.797-18.514C510.766 229.407 521 208.478 521 179.097M172.84 84.276c0 13.517-4.591 23.456-14.43 29.022-8.527 5.168-21.318 7.951-37.717 8.746v40.948c9.183.795 17.383 3.18 23.614 13.517l40.34 83.486H265l-39.684-79.511c-12.135-25.443-23.942-31.009-46.572-36.972 33.453-5.168 62.642-25.046 62.642-70.367 0-19.878-7.543-42.936-22.63-55.26-14.758-12.324-34.765-17.89-59.362-17.89h-38.701v48.502h6.887q21.975 0 34.109 8.746c7.544 5.566 11.151 14.312 11.151 27.033m-52.147 37.768H68.546V48.496h52.147V-.005H.003v260h70.514v-97.003h50.179zm653.31 57.248c0-18.468-7.329-34.628-21.987-47.325q-20.83-18.468-78.305-28.472c-11.572-2.309-21.986-3.848-30.473-6.156-56.703-12.697-48.603-44.632 7.329-44.632 30.087 0 59.018 9.234 87.563 14.236 4.243.77 5.786 1.154 6.171 1.154l6.172-55.405C720.386 3.458 684.898-.005 654.039-.005c-37.417 0-66.347 6.54-86.791 19.238-20.444 12.697-31.245 38.476-31.245 63.1 0 21.162 7.715 37.322 23.916 49.634 15.815 11.543 44.36 20.777 85.634 28.087 12.729 2.309 23.144 3.848 31.244 6.156q12.343 3.463 18.13 6.541c7.329 3.848 11.186 9.619 11.186 15.775q0 12.12-13.886 18.469c-27.388 13.081-104.54 5.001-135.39-8.85l-13.115 49.634c3.471.385 9.257 1.539 16.201 2.693 56.703 8.85 130.76 20.392 181.3-11.542 21.602-13.467 32.788-32.705 32.788-59.638m784 .271c0-19.185-7.58-35.3-22.33-47.578-14.35-12.022-41.33-21.359-80.93-28.009-12.36-2.302-22.73-4.605-31.9-6.14-.4 0-.8 0-.8-.383v14.964l-61-37.218 61-36.835v14.58h8.37c31.1 0 61.01 9.593 90.91 14.58 3.99.385 5.58.385 5.98.385l6.38-55.252c-30.7-8.825-67.78-12.662-99.68-12.662-38.67 0-68.57 6.523-88.91 19.568-21.93 13.046-33.09 38.37-33.09 63.31 0 21.103 8.37 37.218 24.72 48.729 16.74 12.278 46.25 21.486 88.51 28.776 8.77 1.152 15.95 2.303 22.33 3.837l.8-13.429 59 39.521-61.79 34.532.39-11.895c-36.28 2.686-88.51-3.837-112.43-14.964l-13.16 49.497c3.19.767 9.17 1.151 16.35 3.069 58.61 8.825 135.16 20.336 187.39-11.894 22.73-13.046 33.89-32.998 33.89-59.089"/></svg>