<svg xmlns="http://www.w3.org/2000/svg" fill="none" class="text-linen-900 dark:text-linen-100 w-full h-10 my-2" viewBox="0 0 602.37 347"><path fill="#14131d" d="M154.28 251.07s23.591-14.829 61.67-33.477c32.748-16.035 38.249-32.155 39.147-36.356.044-.204.339-.196.371.01 1.823 11.551-1.484 51.725-3.457 60.834-2.005 9.244-5.879 16.495-11.382 23.124-5.503 6.627-11.975 9.046-17.352 10.45-12.91 3.368-43.411 10.278-70.048 24.676-27.097 14.648-41.806 41.715-44.278 46.564-.092.179-.36.109-.358-.092.719-31.843 5.336-45.82 10.793-59.161 6.496-15.88-7.616-20.059-17.233-20.059H62.359c-32.811 0-63.956-21.921-62.298-46.382a2.526 2.526 0 0 1 2.111-2.305c10.42-1.727 20.231-6.472 20.231-6.472 16.05-6.472 28.814-27.299 32.857-31.848 4.044-4.549 11.31-19.398 28.308-23.253 17.49-3.966 33.731-17.352 38.42-35.891 3.931-15.551 22.634-102.48 26.202-119.09a2.98 2.98 0 0 1 3.625-2.264c15.916 3.838 53.22 29.185 73.24 61.025 17.828 28.354 30.793 67.642 17.051 105.08-17.582 47.895-87.822 84.883-87.822 84.883zM385.05 108.1h19.761c1.07 0 1.671 1.232 1.009 2.074l-46.559 61.002c-4.393 6.421-4.053 11.743-.072 16.221q.07.081.136.165l51.313 63.947c.764 1.036.026 2.501-1.262 2.501h-23.911c-5.179 0-11.275-4.418-15.998-9.446-4.723-5.029-24.074-31.235-28.035-36.111-2.23-2.743-5.497-5.725-11.062-5.725-2.925 0-8.386 2.21-8.386 8.01v41.574c0 .936-.759 1.695-1.696 1.695h-29.973a1.696 1.696 0 0 1-1.696-1.695V94.292c0-1.332 1.461-2.144 2.594-1.441 7.964 4.951 31.538 20.579 31.538 32.101v42.891c0 2.656 3.323 3.857 5.016 1.809 9.56-11.563 33.949-46.546 36.264-49.53 8.628-11.122 15.43-12.02 21.024-12.02zm42.73 1.44c0-1.13 1.201-1.88 2.261-1.412 9.458 4.166 31.317 29.479 31.317 41.135v103.38c0 .752-.611 1.363-1.363 1.363h-30.784a1.363 1.363 0 0 1-1.363-1.363zm32.1 1.74c7.166 7.238 14.506 18.271 18.924 27.026a4.33 4.33 0 0 0 3.867 2.391h35.39c.657 0 1.191.534 1.191 1.192v110.65c0 .752.611 1.364 1.363 1.364h30.386c.752 0 1.363-.612 1.363-1.364v-110.65c0-.658.534-1.192 1.191-1.192h47.701c.779 0 1.315-.778 1.041-1.506-4.553-12.173-11.523-22.473-21.568-30.39a4.36 4.36 0 0 0-2.698-.944h-116.72c-1.786 0-2.686 2.152-1.429 3.42z"/></svg>