<svg xmlns="http://www.w3.org/2000/svg" fill-rule="evenodd" stroke-linejoin="round" stroke-miterlimit="2" clip-rule="evenodd" viewBox="0 0 398.91 470.01"><g transform="translate(-56.51 -21.067)"><path fill="#361b0f" d="M56.508 420.524V129.399C58.045 69.74 147.225 21.057 256.356 21.057c109.133 0 197.507 48.684 199.053 108.342v291.125c-1.537 35.006-90.718 70.549-199.848 70.549S58.054 455.53 56.508 420.523"/><g transform="translate(0 -.25)"><path fill="#ff5e56" d="m77.926 234.33-.095-24.148c38.202 23.496 90.816 42.535 179.12 41.142 68.039-1.074 123.62-8.943 177.2-41.142l-.095 24.148c-1.372 30.007-80.991 54.494-178.42 54.494s-176.33-24.487-177.71-54.494"/><clipPath id="a"><path d="m77.926 234.33-.095-24.148c38.202 23.496 90.816 42.535 179.12 41.142 68.039-1.074 123.62-8.943 177.2-41.142l-.095 24.148c-1.372 30.007-80.991 54.494-178.42 54.494s-176.33-24.487-177.71-54.494"/></clipPath><g clip-path="url(#a)"><path fill="url(#b)" d="m77.926 479.33-.095-273.15c38.202 23.496 90.816 42.535 179.12 41.142 68.039-1.074 123.62-8.943 177.2-41.142l-.095 273.15c-1.372 30.007-80.991 54.494-178.42 54.494s-176.33-24.487-177.71-54.494" transform="translate(0 -60)"/></g></g><path fill="#ffc756" d="M77.926 174.33v-40.39c1.372-51.138 80.99-92.87 178.42-92.87 97.431 0 176.33 41.732 177.71 92.87v40.39c-1.372 30.007-80.991 54.494-178.42 54.494s-176.33-24.487-177.71-54.494"/><clipPath id="c"><path d="M77.926 174.33v-40.39c1.372-51.138 80.99-92.87 178.42-92.87 97.431 0 176.33 41.732 177.71 92.87v40.39c-1.372 30.007-80.991 54.494-178.42 54.494s-176.33-24.487-177.71-54.494"/></clipPath><g clip-path="url(#c)"><path fill="url(#b)" d="m77.926 479.33-.095-273.15c38.202 23.496 90.816 42.535 179.12 41.142 68.039-1.074 123.62-8.943 177.2-41.142l-.095 273.15c-1.372 30.007-80.991 54.494-178.42 54.494s-176.33-24.487-177.71-54.494" transform="translate(0 -60.25)"/></g><g transform="translate(0 59.5)"><path fill="#9fff56" d="m77.926 234.33-.095-24.148c38.202 23.496 90.816 42.535 179.12 41.142 68.039-1.074 123.62-8.943 177.2-41.142l-.095 24.148c-1.372 30.007-80.991 54.494-178.42 54.494s-176.33-24.487-177.71-54.494"/><clipPath id="d"><path d="m77.926 234.33-.095-24.148c38.202 23.496 90.816 42.535 179.12 41.142 68.039-1.074 123.62-8.943 177.2-41.142l-.095 24.148c-1.372 30.007-80.991 54.494-178.42 54.494s-176.33-24.487-177.71-54.494"/></clipPath><g clip-path="url(#d)"><path fill="url(#b)" d="m77.926 479.33-.095-273.15c38.202 23.496 90.816 42.535 179.12 41.142 68.039-1.074 123.62-8.943 177.2-41.142l-.095 273.15c-1.372 30.007-80.991 54.494-178.42 54.494s-176.33-24.487-177.71-54.494" transform="translate(0 -119.75)"/></g></g><g transform="translate(0 119.25)"><path fill="#954f00" d="m77.926 234.33-.095-24.148c38.202 23.496 90.816 42.535 179.12 41.142 68.039-1.074 123.62-8.943 177.2-41.142l-.095 24.148c-1.372 30.007-80.991 54.494-178.42 54.494s-176.33-24.487-177.71-54.494"/><clipPath id="g"><path d="m77.926 234.33-.095-24.148c38.202 23.496 90.816 42.535 179.12 41.142 68.039-1.074 123.62-8.943 177.2-41.142l-.095 24.148c-1.372 30.007-80.991 54.494-178.42 54.494s-176.33-24.487-177.71-54.494"/></clipPath><g clip-path="url(#g)"><path fill="url(#b)" d="m77.926 479.33-.095-273.15c38.202 23.496 90.816 42.535 179.12 41.142 68.039-1.074 123.62-8.943 177.2-41.142l-.095 273.15c-1.372 30.007-80.991 54.494-178.42 54.494s-176.33-24.487-177.71-54.494" transform="translate(0 -179.5)"/></g></g><g transform="translate(0 179)"><path fill="#ffc756" d="m77.926 234.33-.095-24.148c38.202 23.496 90.816 42.535 179.12 41.142 68.039-1.074 123.62-8.943 177.2-41.142l-.095 24.148c-1.372 30.007-80.991 54.494-178.42 54.494s-176.33-24.487-177.71-54.494"/><clipPath id="h"><path d="m77.926 234.33-.095-24.148c38.202 23.496 90.816 42.535 179.12 41.142 68.039-1.074 123.62-8.943 177.2-41.142l-.095 24.148c-1.372 30.007-80.991 54.494-178.42 54.494s-176.33-24.487-177.71-54.494"/></clipPath><g clip-path="url(#h)"><path fill="url(#b)" d="m77.926 479.33-.095-273.15c38.202 23.496 90.816 42.535 179.12 41.142 68.039-1.074 123.62-8.943 177.2-41.142l-.095 273.15c-1.372 30.007-80.991 54.494-178.42 54.494s-176.33-24.487-177.71-54.494" transform="translate(0 -239.25)"/></g></g><path fill="#fff" d="M245.93 132.35s-10.762-4.755-15.06-4.64c-2.82.075-4.782 2.388-4.378 5.16s3.021 4.963 5.842 4.887c4.298-.115 13.596-5.407 13.596-5.407m68.779-4.651s-1.579-5.606-4.718-6.657c-4.668-1.565-11.033-1.423-14.204.317-3.17 1.739-1.955 4.421 2.714 5.985 3.139 1.052 16.208.355 16.208.355m-135.42-26.415s-2.186 6.576-.627 9.112c1.872 3.044 6.001 5.221 9.216 4.858s4.305-3.13 2.433-6.174c-1.559-2.536-11.022-7.796-11.022-7.796m86.109 13.13s12.674-2.324 15.222-4.092c4.139-2.872 4.485-6.01.772-7.004s-10.089.531-14.228 3.403c-2.548 1.768-1.766 7.693-1.766 7.693m-52.349-.364s15.026.387 19.543-.796c3.834-1.004 4.936-3.229 2.461-4.966s-7.597-2.332-11.43-1.329c-4.518 1.184-10.574 7.091-10.574 7.091m117.3-3.158s-1.579-5.605-4.718-6.657c-4.668-1.564-11.033-1.422-14.204.317s-1.955 4.421 2.713 5.985c3.139 1.052 16.209.355 16.209.355m-135.42-26.415s-2.185 6.576-.626 9.113c1.872 3.044 6.001 5.22 9.216 4.857s4.304-3.13 2.433-6.174c-1.56-2.536-11.023-7.796-11.023-7.796m169.78 13.475s11.622-3.39 13.996-5.407c3.297-2.8 3.249-5.662-.107-6.389-3.356-.726-8.757.958-12.054 3.758-2.375 2.016-1.835 8.038-1.835 8.038m-59.41-16.647s-5.636 7.502-5.636 10.718c0 3.11 2.525 5.636 5.636 5.636s5.636-2.526 5.636-5.636c0-3.216-5.636-10.718-5.636-10.718m-46.378 10.113s-11.524-3.504-15.619-3.16c-2.767.233-4.132 2.352-3.045 4.729s4.216 4.118 6.984 3.885c4.095-.344 11.68-5.454 11.68-5.454m84.527-12.162s-1.832 6.743-.222 9.362c1.796 2.922 5.759 5.01 8.844 4.662 3.085-.349 4.132-3.004 2.335-5.925-1.61-2.619-10.957-8.099-10.957-8.099m-165.52 5.382s-7.531-5.645-12.357-6.639c-3.364-.694-7.767.232-9.825 2.066-2.057 1.835-.996 3.887 2.368 4.581 4.826.995 19.814-.008 19.814-.008m34.302-1.574s11.815 2.341 15.855 1.591c2.731-.507 3.878-2.75 2.56-5.008s-4.605-3.678-7.336-3.171c-4.04.75-11.079 6.588-11.079 6.588m52.174-7.837s2.387 5.646 5.803 6.448c4.93 1.157 11.435.406 14.517-1.677s1.581-4.714-3.349-5.871c-3.416-.803-16.971 1.1-16.971 1.1m-71.971-3.81s13.659-3.386 16.93-5.553c3.811-2.526 4.204-5.326.877-6.248s-9.122.379-12.933 2.904c-3.271 2.168-4.874 8.897-4.874 8.897m55.487-19.241s-1.833 6.743-.222 9.362c1.796 2.921 5.759 5.01 8.844 4.662 3.085-.349 4.131-3.004 2.335-5.925-1.61-2.619-10.957-8.099-10.957-8.099m57.359 13.864s15.026.387 19.544-.796c3.833-1.004 4.936-3.229 2.461-4.966s-7.597-2.332-11.431-1.328c-4.517 1.183-10.574 7.09-10.574 7.09"/></g><defs><linearGradient id="b" x2="1" gradientTransform="translate(91.489 325.08)scale(108.29)" gradientUnits="userSpaceOnUse"><stop offset="0" stop-color="#fff" stop-opacity="0"/><stop offset=".29" stop-color="#fff" stop-opacity=".631"/><stop offset=".44" stop-color="#fff" stop-opacity=".729"/><stop offset=".6" stop-color="#fff" stop-opacity=".69"/><stop offset=".65" stop-color="#fff" stop-opacity=".604"/><stop offset=".7" stop-color="#fff" stop-opacity=".514"/><stop offset="1" stop-color="#fff" stop-opacity="0"/></linearGradient></defs></svg>