<svg xmlns="http://www.w3.org/2000/svg" fill="none" viewBox="0 0 100 68"><rect width="95.5" height="63.5" x="2.25" y="2.25" fill="url(#a)" rx="5.75"/><g fill="#020f30"><path d="M23.96 45.336q-1.651 0-2.968-.532a6.3 6.3 0 0 1-2.24-1.512q-.896-.98-1.4-2.38-.476-1.4-.476-3.136c0-1.736.159-2.203.476-3.136q.504-1.4 1.4-2.38a6.3 6.3 0 0 1 2.212-1.512q1.316-.532 2.968-.532 2.296 0 3.696.952a6.1 6.1 0 0 1 2.128 2.52L26.984 35.2q-.392-.923-1.12-1.484-.7-.588-1.932-.588-1.596 0-2.464.924-.84.924-.84 2.52v2.408q0 1.568.84 2.52.869.924 2.52.924 1.288 0 2.044-.588.784-.588 1.26-1.568l2.688 1.596q-.728 1.54-2.212 2.52-1.456.952-3.808.952m9.845-3.164h4.592V27.108h-4.592V24.28h8.176v17.892h4.62V45H33.805zm24.069-13.86q-1.26 0-1.792-.532a1.8 1.8 0 0 1-.504-1.288v-.672q0-.756.504-1.288.532-.532 1.792-.532c1.26 0 1.428.177 1.764.532q.532.532.532 1.288v.672q0 .756-.532 1.288-.504.532-1.764.532m-6.552 13.86h4.76V33.38h-4.76v-2.828h8.344v11.62h4.424V45H51.322z"/><path fill-rule="evenodd" d="M56.261 24.706a1.56 1.56 0 0 0-.433 1.114v.671c0 .442.144.808.433 1.114.285.283.8.456 1.613.456.818 0 1.318-.175 1.582-.453l.005-.005c.308-.308.459-.673.459-1.112v-.672a1.5 1.5 0 0 0-.459-1.11l-.005-.006c-.264-.279-.764-.454-1.582-.454-.814 0-1.328.174-1.613.457m-.356-.351c.425-.425 1.105-.605 1.969-.605.86 0 1.535.179 1.943.607.4.401.603.894.603 1.463v.672c0 .568-.203 1.06-.603 1.462-.408.429-1.083.608-1.943.608-.864 0-1.544-.181-1.969-.606l-.005-.004a2.06 2.06 0 0 1-.572-1.46v-.672c0-.566.19-1.058.572-1.46zm-31.973 6.11q-1.61.001-2.873.514a6.1 6.1 0 0 0-2.124 1.45q-.857.938-1.347 2.293-.461 1.354-.462 3.053c0 1.7.155 2.151.462 3.054q.49 1.355 1.347 2.292a6 6 0 0 0 2.15 1.45q1.264.514 2.875.514c1.536 0 2.753-.31 3.671-.91q1.328-.879 2.022-2.215l-2.26-1.342a4.4 4.4 0 0 1-1.21 1.416c-.56.435-1.3.64-2.195.64-1.148 0-2.063-.323-2.702-1.003l-.005-.006c-.61-.69-.903-1.594-.903-2.686v-2.408c0-1.108.293-2.014.905-2.688l.003-.003c.637-.678 1.532-1.003 2.646-1.003.857 0 1.564.205 2.089.644q.677.524 1.078 1.33l2.328-1.269a5.8 5.8 0 0 0-1.94-2.208c-.879-.598-2.057-.909-3.555-.909" clip-rule="evenodd"/></g><rect width="14" height="32" x="71" y="18" fill="#2c64f2" rx="2"/><rect width="95.5" height="63.5" x="2.25" y="2.25" stroke="#020f30" stroke-width="4.5" rx="5.75"/><defs><linearGradient id="a" x1="50" x2="50" y2="68" gradientUnits="userSpaceOnUse"><stop offset="0" stop-color="#E4EBFE"/><stop offset="1" stop-color="#F4F7FE"/></linearGradient></defs></svg>