<svg xmlns="http://www.w3.org/2000/svg" viewBox="0 0 240.71 139.16"><g fill="#005a9c"><path d="M210.016 103.19c-4.58-3.638-11.266-2.864-14.902 1.719-4.503 5.681-8.592 9.1-13.255 11.09-8.598 3.662-15.887 2.115-22.933-4.872-6.905-6.845-13.633-14.304-20.16-21.533-3.193-3.537-6.391-7.08-9.631-10.583-5.536-5.982-11.101-11.942-16.66-17.907l-.49-.525c-12.092-12.952-24.592-26.346-36.648-39.8-9.56-10.672-24.332-15.958-38.543-13.82C22.27 9.132 10.526 18.434 3.722 33.146-2.835 47.314-.616 63.414 9.505 75.16c17.805 20.665 32.825 37.75 50.417 53.82 7.194 6.568 15.9 10.065 25.17 10.112 6.014.03 15.078-.65 24.326-6.88 4.049-2.729 7.82-5.535 9.478-9.816 1.688-4.382.112-9.42-3.842-12.261-3.836-2.764-8.87-2.57-12.529.472-.46.384-.962.827-1.51 1.305-5.749 5.038-12.902 11.31-27.485.833-13.36-9.603-23.706-22.19-35.692-36.764C33.932 71.233 29.89 66.32 25.57 61.3c-4.615-5.357-5.612-12.727-2.602-19.241 2.626-5.67 7.695-12.721 16.973-14.11 7.028-1.057 14.907 1.755 19.61 7C71.709 48.52 84.303 62.02 96.484 75.066a5468 5468 0 0 1 17.09 18.368c3.182 3.438 6.321 6.916 9.508 10.447 6.692 7.412 13.61 15.072 20.915 22.32 13.19 13.08 29.584 16.394 46.185 9.325 7.973-3.408 14.825-8.942 21.552-17.428 3.63-4.577 2.862-11.263-1.717-14.907z"/><path d="M226.606 44.24c6.858-3.254 12.252-9.379 12.765-16.808 1.304-12.898-9.307-25.242-24.916-27.15-9.584-1.216-18.478 1.624-24.78 6.851-3.37 2.805-4.279 7.997-1.358 11.658 3.193 3.81 6.876 4.476 12.901 1.164 2.16-1.229 5.406-2.25 8.977-2.003 6.733.467 8.663 6.538 8.474 9.296-.03.408.012 9.81-9.472 9.154l-3.576-.247c-3.984-.272-7.967 3.454-8.262 7.718-.319 4.536 2.998 8.499 7.123 8.789l4.396.3c12.098.84 10.835 11.116 10.582 12.758-.236 4.724-7.813 12.739-21.328 3.626-4.585-3.089-37.292-44.2-37.292-44.2-15.497-20.051-41.83-23.582-62.609-8.392a10.56 10.56 0 0 0-4.225 6.94c-.43 2.798.248 5.604 1.918 7.89a10.55 10.55 0 0 0 6.928 4.228 10.52 10.52 0 0 0 7.89-1.92c14.176-10.365 26.812-4.187 33.309 4.223 0 0 35.114 45.198 44.155 49.988 5.866 3.107 11.992 4.902 18.218 5.333 19.109 1.323 30.747-9.213 33.887-23.647 2.059-9.46-4.055-21.285-13.704-25.549z"/></g></svg>